<svg xmlns="http://www.w3.org/2000/svg" xmlns:xlink="http://www.w3.org/1999/xlink" width="400" height="401" version="1.1" viewBox="0 0 400 401"><title>icon-bathtub</title><desc>Created with Sketch.</desc><g id="Page-1" fill="none" fill-rule="evenodd" stroke="none" stroke-width="1"><g id="bath"><path id="Oval-1" fill="#db8289" d="M199,358 C337.013235,358 351,287.7 351,244 C312.999991,244 85.0000004,244 47,244 C47.0000001,287.7 60.9867649,358 199,358 Z"/><path id="Oval-1-Copy-2" fill="#db8289" d="M315.85,244 C304.45,301 259.046169,349.056954 199,358 C337.013235,358 351,287.7 351,244 C351,244 333.9,244 315.85,244 Z"/><g id="Group" transform="translate(216.100000, 35.950000)"><path id="Path-1" stroke="#db8289" stroke-width="13" d="M38.95,40.85 C38.95,40.85 38.95,1.41582325 76.95,0.95 C114.95,0.48417675 114.95,38.95 114.95,38.95 L114.95,189.05"/><path id="Oval-5" fill="#db8289" d="M67.9288695,56.9452903 C69.8441925,41.3462365 56.9014513,26.9208914 39.020448,24.7253802 C21.1394447,22.5298691 5.09135148,33.3955873 3.1760285,48.9946411 C1.26070553,64.593695 66.0135465,72.5443441 67.9288695,56.9452903 Z" transform="translate(35.625579, 44.921227) rotate(7.000000) translate(-35.625579, -44.921227)"/><path id="Oval-5-Copy" fill="#FFF" d="M57.393905,53.489701 C58.5246412,44.2805937 14.7440772,38.9050163 13.613341,48.1141237 C12.4826048,57.3232311 56.2631688,62.6988084 57.393905,53.489701 Z" transform="translate(35.503623, 50.801912) rotate(7.000000) translate(-35.503623, -50.801912)"/></g><rect id="Rectangle-1" width="328.7" height="17.1" x="35.6" y="221.2" fill="#db8289" rx="2"/><rect id="Rectangle-2" width="56.329" height="79.8" x="117.635" y="210.75" fill="#db8289" stroke="#FFF" stroke-width="7" rx="3"/><path id="Path-2" stroke="#FFF" stroke-width="6" d="M117.3,263 L177.157538,263"/><path id="Rectangle-3" fill="#db8289" d="M292.1,350.4 C292.1,350.4 303.5,346.6 311.1,340.9 C314.613259,339.728914 326.824138,358.310374 328.2,366.565545 L288.3,366.565545 L292.1,350.4 Z"/><path id="Rectangle-3-Copy" fill="#db8289" d="M73.6,350.452885 C73.6,350.452885 85,346.652885 92.6,340.952885 C96.1132593,339.781798 108.324138,358.363259 109.7,366.61843 L69.8,366.61843 L73.6,350.452885 Z" transform="translate(89.750000, 353.759215) scale(-1, 1) translate(-89.750000, -353.759215)"/><path id="Line" stroke="#db8289" stroke-dasharray="1 16" stroke-linecap="round" stroke-width="6" d="M242.6558,110.569631 L219.324538,186.882751"/><path id="Line-Copy" stroke="#db8289" stroke-dasharray="1 16" stroke-linecap="round" stroke-width="6" d="M257.443176,113.014495 L246.337163,192.037887"/><path id="Line-Copy-2" stroke="#db8289" stroke-dasharray="1 16" stroke-linecap="round" stroke-width="6" d="M227.580341,106.298048 L196.399997,179.754335"/></g></g></svg>