<?xml version="1.0" encoding="UTF-8" standalone="no"?>
<svg width="400px" height="400px" viewBox="0 0 400 400" version="1.1" xmlns="http://www.w3.org/2000/svg" xmlns:xlink="http://www.w3.org/1999/xlink">
    <!-- Generator: Sketch 3.6.1 (26313) - http://www.bohemiancoding.com/sketch -->
    <title>icon-bed</title>
    <desc>Created with Sketch.</desc>
    <defs></defs>
    <g id="Page-1" stroke="none" stroke-width="1" fill="none" fill-rule="evenodd">
        <g id="bed">
            <path d="M40,328 L78,328 L62,366 L40,366 L40,328 Z" id="Rectangle-6" fill="#db8289"></path>
            <path d="M322,328 L360,328 L344,366 L322,366 L322,328 Z" id="Rectangle-6-Copy" fill="#db8289" transform="translate(341.000000, 347.000000) scale(-1, 1) translate(-341.000000, -347.000000) "></path>
            <rect id="Rectangle-5-Copy" fill="#db8289" x="40" y="240" width="320" height="80" rx="5"></rect>
            <path d="M40,320 L360,320 L360,275.000001 L40,320 Z" id="Rectangle-5-Copy-12" fill="#db8289"></path>
            <rect id="Rectangle-8" fill="#db8289" x="58" y="224" width="282" height="10"></rect>
            <rect id="Rectangle-10" fill="#db8289" x="58" y="156" width="16" height="78" rx="13"></rect>
            <rect id="Rectangle-10-Copy" fill="#db8289" x="324" y="156" width="16" height="78" rx="13"></rect>
            <path d="M263,232 C295.5848,232 322,211.247465 322,211.247465 C322,211.247465 295.5848,190.494929 263,190.494929 C230.4152,190.494929 204,211.247465 204,211.247465 C204,211.247465 230.4152,232 263,232 Z" id="Oval-8-Copy" stroke="#FFFFFF" stroke-width="7" fill="#db8289"></path>
            <path d="M263,231.752535 C293,232.505071 322,211 322,211 L222,221.376267 C222,221.376267 233,231 263,231.752535 Z" id="Oval-8-Copy-3" fill="#db8289"></path>
            <path d="M137,233 C169.5848,233 196,212.247465 196,212.247465 C196,212.247465 169.5848,191.494929 137,191.494929 C104.4152,191.494929 78,212.247465 78,212.247465 C78,212.247465 104.4152,233 137,233 Z" id="Oval-8-Copy-2" stroke="#FFFFFF" stroke-width="7" fill="#db8289"></path>
            <path d="M136,233.980701 C166,234.733236 195,213.228165 195,213.228165 L95,223.604433 C95,223.604433 106,233.228165 136,233.980701 Z" id="Oval-8-Copy-4" fill="#db8289"></path>
            <path d="M68,184 C68,184 104,162 198,162 C292,162 332.068173,184 332.068173,184" id="Path-6" stroke="#db8289" stroke-width="12"></path>
        </g>
    </g>
</svg>