<?xml version="1.0" encoding="utf-8"?>
<!-- Generator: Adobe Illustrator 19.2.1, SVG Export Plug-In . SVG Version: 6.00 Build 0)  -->
<svg version="1.1" id="Layer_1" xmlns="http://www.w3.org/2000/svg" xmlns:xlink="http://www.w3.org/1999/xlink" x="0px" y="0px"
	 viewBox="0 0 400 400" style="enable-background:new 0 0 400 400;" xml:space="preserve">
<style type="text/css">
	.st0{fill:#db8289;}
	.st1{fill:#FFFFFF;}
	.st2{fill:#db8289;}
</style>
<title>icon-bed</title>
<desc>Created with Sketch.</desc>
<rect x="55.2" y="71.7" class="st0" width="286.4" height="293.3"/>
<rect x="77.8" y="157" class="st1" width="51.9" height="53"/>
<rect x="140.2" y="157" class="st1" width="51.9" height="53"/>
<rect x="202.7" y="157" class="st1" width="51.9" height="53"/>
<rect x="265.1" y="157" class="st1" width="51.9" height="53"/>
<rect x="77.8" y="222.1" class="st1" width="51.9" height="53"/>
<rect x="140.2" y="222.1" class="st1" width="51.9" height="53"/>
<rect x="202.7" y="222.1" class="st1" width="51.9" height="53"/>
<rect x="265.1" y="222.1" class="st1" width="51.9" height="53"/>
<rect x="77.8" y="287.2" class="st1" width="51.9" height="53"/>
<rect x="140.2" y="287.2" class="st1" width="51.9" height="53"/>
<rect x="202.7" y="287.2" class="st1" width="51.9" height="53"/>
<rect x="265.1" y="287.2" class="st1" width="51.9" height="53"/>
<path class="st1" d="M105.9,110.5L105.9,110.5c-13.1,0-23.7-10.6-23.7-23.7V59.3c0-13.1,10.6-23.7,23.7-23.7h0
	c13.1,0,23.7,10.6,23.7,23.7v27.5C129.6,99.9,119,110.5,105.9,110.5z"/>
<path class="st2" d="M105.9,98L105.9,98c-6.8,0-12.3-5.5-12.3-12.3V57.6c0-6.8,5.5-12.3,12.3-12.3h0c6.8,0,12.3,5.5,12.3,12.3v28.2
	C118.2,92.5,112.7,98,105.9,98z"/>
<path class="st1" d="M288.9,110.5L288.9,110.5c-13.1,0-23.7-10.6-23.7-23.7V59.3c0-13.1,10.6-23.7,23.7-23.7h0
	c13.1,0,23.7,10.6,23.7,23.7v27.5C312.6,99.9,302,110.5,288.9,110.5z"/>
<path class="st2" d="M288.9,98L288.9,98c-6.8,0-12.3-5.5-12.3-12.3V57.6c0-6.8,5.5-12.3,12.3-12.3h0c6.8,0,12.3,5.5,12.3,12.3v28.2
	C301.1,92.5,295.6,98,288.9,98z"/>
</svg>
